<svg xmlns="http://www.w3.org/2000/svg" width="1400" height="680" viewBox="0 0 1400 680" role="img" aria-labelledby="title desc"><title id="title">The memory / Preserve the public record</title><desc id="desc">A stone municipal records office sits beside a brass-handled archive cabinet and a leather asset register. The work-order drawer slowly opens and closes while city-hall windows glow. All displayed IDs are fictional.</desc>
<defs>
 <linearGradient id="sky" x2="0" y2="1"><stop stop-color="#121c30"/><stop offset=".7" stop-color="#253949"/><stop offset="1" stop-color="#815249"/></linearGradient>
 <linearGradient id="desk" x2="0" y2="1"><stop stop-color="#263843"/><stop offset="1" stop-color="#09151e"/></linearGradient>
 <linearGradient id="paper" x2=".2" y2="1"><stop stop-color="#f7efdb"/><stop offset=".6" stop-color="#e8d8b4"/><stop offset="1" stop-color="#b69d76"/></linearGradient>
 <linearGradient id="bronze" x2="1" y2=".3"><stop stop-color="#6d4b32"/><stop offset=".25" stop-color="#e8c68b"/><stop offset=".5" stop-color="#9b7148"/><stop offset=".75" stop-color="#f8ddb0"/><stop offset="1" stop-color="#765236"/></linearGradient>
 <linearGradient id="stone" x2="1" y2="1"><stop stop-color="#d1c1a2"/><stop offset=".55" stop-color="#9c8c75"/><stop offset="1" stop-color="#665e57"/></linearGradient>
 <linearGradient id="roof" x2="0" y2="1"><stop stop-color="#4c6f76"/><stop offset="1" stop-color="#1e373f"/></linearGradient>
 <linearGradient id="cover" x2="1" y2="1"><stop stop-color="#364d68"/><stop offset="1" stop-color="#152335"/></linearGradient>
 <linearGradient id="beam" x2="0" y2="1"><stop stop-color="#ffe7ad" stop-opacity=".3"/><stop offset="1" stop-color="#ffe7ad" stop-opacity="0"/></linearGradient>
 <radialGradient id="aura"><stop stop-color="#d2a575" stop-opacity=".22"/><stop offset="1" stop-color="#d2a575" stop-opacity="0"/></radialGradient>
 <radialGradient id="radar"><stop stop-color="#2c2948"/><stop offset="1" stop-color="#101c29"/></radialGradient>
 <pattern id="grain" width="6" height="6" patternUnits="userSpaceOnUse"><path d="M0 1H6M1 0V6" stroke="#fff" stroke-opacity=".025"/></pattern>
 <pattern id="mapgrid" width="38" height="38" patternUnits="userSpaceOnUse"><path d="M38 0H0V38" fill="none" stroke="#526f75" stroke-opacity=".24"/></pattern>
 <filter id="shadow" x="-30%" y="-30%" width="170%" height="190%"><feDropShadow dx="0" dy="10" stdDeviation="9" flood-color="#000" flood-opacity=".45"/></filter>
 <filter id="glow" x="-80%" y="-80%" width="260%" height="260%"><feGaussianBlur stdDeviation="4" result="b"/><feMerge><feMergeNode in="b"/><feMergeNode in="SourceGraphic"/></feMerge></filter>
 <marker id="edge-arrow" viewBox="0 0 10 10" refX="9" refY="5" markerWidth="5" markerHeight="5" orient="auto"><path d="M1 1L9 5L1 9" fill="none" stroke="#2e7b63" stroke-width="1.5"/></marker>
 <clipPath id="mapclip"><path d="M0 16L30 0H760L790 18V325L755 344H24L0 326Z"/></clipPath>
 <g id="tree"><path d="M0 0V27" stroke="#897864" stroke-width="5"/><path d="M-22 5L0 -42L22 5ZM-17 -14L0 -55L17 -14Z" fill="#315c54"/><path d="M0 -55V5" stroke="#739881" opacity=".4"/></g>
</defs>
<style>
 text{font-family:'Segoe UI',Arial,sans-serif;fill:#f3eee3}
 .mono{font-family:Consolas,'Courier New',monospace;letter-spacing:2px}
 .twinkle{animation:twinkle 8s ease-in-out infinite}
 .windows{animation:windows 7s ease-in-out infinite}
 .flag{animation:flag 4s ease-in-out infinite}
 .float{animation:float 6s ease-in-out infinite}
 .ripples{transform-box:fill-box;transform-origin:center;animation:ripples 4s ease-out infinite}
 .sweep{animation:sweep 12s linear infinite;transform-origin:0 0}
 .needle{animation:needle 8s ease-in-out infinite;transform-origin:0 0}
 .stamp{animation:stamp 7s ease-in-out infinite}
 .drawer{animation:drawer 9s ease-in-out infinite}
 .draft{stroke-dasharray:18 250;animation:draft 8s linear infinite}
 .flow{stroke-dasharray:10 24;animation:flow 4s linear infinite}
 .traveler{offset-rotate:0deg;animation:travel 14s linear infinite}
 .water{animation:water 6s ease-in-out infinite}
 .lamp{animation:lamp 9s ease-in-out infinite}
 @keyframes twinkle{0%,100%{opacity:.25}50%{opacity:.9}}
 @keyframes windows{0%,100%{opacity:.65}50%{opacity:1}}
 @keyframes flag{0%,100%{transform:skewY(-4deg)}50%{transform:skewY(6deg)}}
 @keyframes float{0%,100%{transform:translateY(0)}50%{transform:translateY(-10px)}}
 @keyframes ripples{0%{transform:scale(.72);opacity:.8}100%{transform:scale(1.2);opacity:.05}}
 @keyframes sweep{to{transform:rotate(360deg)}}
 @keyframes needle{0%,100%{transform:rotate(-12deg)}50%{transform:rotate(16deg)}}
 @keyframes stamp{0%,25%,100%{transform:translateY(-16px)}35%,55%{transform:translateY(0)}}
 @keyframes drawer{0%,20%,100%{transform:translateX(0)}35%,65%{transform:translateX(18px)}}
 @keyframes draft{to{stroke-dashoffset:-268}}
 @keyframes flow{to{stroke-dashoffset:-68}}
 @keyframes travel{to{offset-distance:100%}}
 @keyframes water{0%,100%{opacity:.55}50%{opacity:.95}}
 @keyframes lamp{0%,100%{opacity:.6}50%{opacity:.9}}
</style>
<defs><clipPath id="frame"><rect width="1400" height="680" rx="22"/></clipPath></defs><g clip-path="url(#frame)"><rect width="1400" height="680" fill="url(#sky)"/><ellipse cx="870" cy="340.0" rx="740" ry="340" fill="url(#aura)"/><circle class="twinkle" style="animation-delay:-0s" cx="390" cy="24" r="1.0" fill="#e4d8c3"/><circle class="twinkle" style="animation-delay:-1s" cx="527" cy="67" r="1.35" fill="#e4d8c3"/><circle class="twinkle" style="animation-delay:-2s" cx="664" cy="110" r="1.7" fill="#e4d8c3"/><circle class="twinkle" style="animation-delay:-3s" cx="801" cy="153" r="1.0" fill="#e4d8c3"/><circle class="twinkle" style="animation-delay:-4s" cx="938" cy="46" r="1.35" fill="#e4d8c3"/><circle class="twinkle" style="animation-delay:-5s" cx="1075" cy="89" r="1.7" fill="#e4d8c3"/><circle class="twinkle" style="animation-delay:-6s" cx="1212" cy="132" r="1.0" fill="#e4d8c3"/><circle class="twinkle" style="animation-delay:-0s" cx="1349" cy="25" r="1.35" fill="#e4d8c3"/><circle class="twinkle" style="animation-delay:-1s" cx="516" cy="68" r="1.7" fill="#e4d8c3"/><circle class="twinkle" style="animation-delay:-2s" cx="653" cy="111" r="1.0" fill="#e4d8c3"/><circle class="twinkle" style="animation-delay:-3s" cx="790" cy="154" r="1.35" fill="#e4d8c3"/><circle class="twinkle" style="animation-delay:-4s" cx="927" cy="47" r="1.7" fill="#e4d8c3"/><circle class="twinkle" style="animation-delay:-5s" cx="1064" cy="90" r="1.0" fill="#e4d8c3"/><circle class="twinkle" style="animation-delay:-6s" cx="1201" cy="133" r="1.35" fill="#e4d8c3"/><circle class="twinkle" style="animation-delay:-0s" cx="1338" cy="26" r="1.7" fill="#e4d8c3"/><circle class="twinkle" style="animation-delay:-1s" cx="505" cy="69" r="1.0" fill="#e4d8c3"/><circle class="twinkle" style="animation-delay:-2s" cx="642" cy="112" r="1.35" fill="#e4d8c3"/><circle class="twinkle" style="animation-delay:-3s" cx="779" cy="155" r="1.7" fill="#e4d8c3"/><circle class="twinkle" style="animation-delay:-4s" cx="916" cy="48" r="1.0" fill="#e4d8c3"/><circle class="twinkle" style="animation-delay:-5s" cx="1053" cy="91" r="1.35" fill="#e4d8c3"/><circle class="twinkle" style="animation-delay:-6s" cx="1190" cy="134" r="1.7" fill="#e4d8c3"/><circle class="twinkle" style="animation-delay:-0s" cx="1327" cy="27" r="1.0" fill="#e4d8c3"/><path d="M0 550H1400V680H0Z" fill="url(#desk)"/><g transform="translate(314 478) scale(1.1)"><ellipse cx="0" cy="18" rx="147" ry="24" fill="#07131d" opacity=".45"/>
<path d="M-120 -120H120V0H-120Z" fill="url(#stone)" stroke="#e1cfac"/>
<path d="M-143 -119L0 -207L143 -119Z" fill="url(#roof)" stroke="#a8beb6" stroke-width="2"/>
<path d="M-110 -123L0 -187L110 -123Z" fill="none" stroke="#728e89"/>
<rect x="-32" y="-128" width="64" height="128" fill="#253645"/>
<path d="M-150 0H150M-140 10H140M-126 20H126" stroke="#c6b99f" stroke-width="8"/>
<g fill="url(#paper)" stroke="#706e63"><path d="M-96 -112H-78V-3H-96ZM-58 -112H-40V-3H-58ZM40 -112H58V-3H40ZM78 -112H96V-3H78Z"/></g>
<g class="windows" fill="#f1ca85"><path d="M-113 -82H-103V-50H-113ZM103 -82H113V-50H103Z"/><path d="M-19 -90H19V-61H-19Z" opacity=".5"/></g>
<circle cx="0" cy="-146" r="18" fill="#132b37" stroke="#d7c499" stroke-width="3"/><path d="M0 -158V-146L9 -139" stroke="#f1ca85" stroke-width="2" fill="none"/>
<path d="M0 -208V-261" stroke="#cfb98c" stroke-width="3"/>
<g transform="translate(2 -258)"><path class="flag" d="M0 0Q20 -8 42 0V22Q20 13 0 22Z" fill="#c9a06e"/></g></g><path d="M620 219H1010V516H620Z" fill="url(#cover)" stroke="#859db0" stroke-width="2"/><path d="M620 238H1010M632 227V502M994 227V502" stroke="#354e62" stroke-width="8"/><g ><path d="M648 260H974V318H648Z" fill="#344a5b" stroke="#7c96a5"/><path d="M761 296H861" stroke="url(#bronze)" stroke-width="6"/><text x="666" y="285" font-size="15" style="fill:#f1ca85" class="mono">ASSETS / WM-481</text></g><g class="drawer"><path d="M648 337H974V395H648Z" fill="#344a5b" stroke="#7c96a5"/><path d="M761 373H861" stroke="url(#bronze)" stroke-width="6"/><text x="666" y="362" font-size="15" style="fill:#f1ca85" class="mono">WORK ORDERS / WO-204</text></g><g ><path d="M648 414H974V472H648Z" fill="#344a5b" stroke="#7c96a5"/><path d="M761 450H861" stroke="url(#bronze)" stroke-width="6"/><text x="666" y="439" font-size="15" style="fill:#f1ca85" class="mono">INSPECTIONS / IN-032</text></g><g transform="translate(1027 385) scale(0.92)"><ellipse cx="125" cy="209" rx="153" ry="19" fill="#07111b" opacity=".5"/>
<path d="M0 0L246 -17L264 189L18 208Z" fill="#152539" stroke="#778e9e" stroke-width="2"/>
<path d="M18 208L264 189V177L19 195Z" fill="url(#paper)"/><path d="M30 201L253 183M30 197L253 179" stroke="#a8987c"/>
<path d="M0 0L19 195L264 177L246 -17Z" fill="url(#cover)" stroke="#7b9bb3" stroke-width="2"/>
<path d="M17 7L34 175L244 159L228 -2Z" fill="none" stroke="#c5aa78" stroke-width="1.5"/>
<path d="M12 0L30 189" stroke="#566f89" stroke-width="7"/>
<path d="M98 159L109 193L121 180L137 190L126 157Z" fill="#b78358"/><text x="53" y="47" font-size="13" style="fill:#f1ca85" class="mono">MUNICIPAL RECORD</text><text x="51" y="87" font-size="20" style="fill:#f1ca85" font-weight="600">ASSET REGISTER</text><text x="56" y="119" font-size="17" style="fill:#94bee8" >WM-481 / ACTIVE</text><path class="draft" d="M51 137L222 125" stroke="#f1ca85" stroke-width="2"/></g><text x="74" y="580" font-size="23" style="fill:#94bee8" font-weight="600">THE CITY&#x27;S MEMORY</text><text x="74" y="612" font-size="19" style="fill:#becbd0" >Keys, constraints, transactions.</text><text x="643" y="580" font-size="23" style="fill:#94bee8" font-weight="600">THE RECORD IS EXACT</text><text x="643" y="612" font-size="19" style="fill:#becbd0" >An identifier is not a similarity score.</text><rect width="1400" height="680" fill="url(#grain)"/><text x="54" y="46" font-size="16" style="fill:#f1ca85" class="mono">CIVIC EVIDENCE LAB / A CITY READ FOUR WAYS</text><text x="52" y="107" font-size="44" font-weight="700">The memory / Preserve the public record</text><text x="54" y="148" font-size="23" style="fill:#c6d3d5" >Relational records are the city&#x27;s memory: exact identifiers and protected transactions.</text><text x="54" y="658" font-size="14" style="fill:#b0c2c9" class="mono">CONCEPTUAL MUNICIPAL SCENE / NOT PRODUCT UI</text></g><rect x="1" y="1" width="1398" height="678" rx="21" fill="none" stroke="#66818d" stroke-opacity=".5"/></svg>
