<svg xmlns="http://www.w3.org/2000/svg" width="1200" height="500" viewBox="0 0 1200 500" font-family="'Segoe UI Variable Display','Segoe UI',Inter,system-ui,sans-serif">
  <defs>
    <radialGradient id="bg" cx="68%" cy="32%" r="105%"><stop offset="0%" stop-color="#0b1f3a"/><stop offset="45%" stop-color="#06122a"/><stop offset="100%" stop-color="#02060d"/></radialGradient>
    <linearGradient id="gBlue" x1="0" y1="0" x2="1" y2="0"><stop offset="0%" stop-color="#cfeeff"/><stop offset="55%" stop-color="#38b6ff"/><stop offset="100%" stop-color="#1f6fd1"/></linearGradient>
    <linearGradient id="gViolet" x1="0" y1="0" x2="1" y2="0"><stop offset="0%" stop-color="#e9e0ff"/><stop offset="55%" stop-color="#a78bfa"/><stop offset="100%" stop-color="#7c5cf0"/></linearGradient>
    <linearGradient id="gBand" x1="0" y1="0" x2="0" y2="1"><stop offset="0%" stop-color="#38b6ff" stop-opacity="0"/><stop offset="85%" stop-color="#38b6ff" stop-opacity=".09"/><stop offset="100%" stop-color="#8fd6ff" stop-opacity=".22"/></linearGradient>
    <linearGradient id="gLaser" x1="0" y1="0" x2="0" y2="1"><stop offset="0%" stop-color="#38b6ff" stop-opacity="0"/><stop offset="100%" stop-color="#8fd6ff" stop-opacity=".35"/></linearGradient>
    <radialGradient id="tube" cx="50%" cy="50%" r="50%"><stop offset="0%" stop-color="#01030a"/><stop offset="40%" stop-color="#041026"/><stop offset="100%" stop-color="#0d2a50"/></radialGradient>
    <linearGradient id="water" x1="0" y1="0" x2="0" y2="1"><stop offset="0%" stop-color="#04162c"/><stop offset="100%" stop-color="#0b3563"/></linearGradient>
    <pattern id="grid" width="40" height="40" patternUnits="userSpaceOnUse"><path d="M40 0H0V40" fill="none" stroke="#0f2744" stroke-width="1"/></pattern>
    <pattern id="scan" width="4" height="4" patternUnits="userSpaceOnUse"><rect width="4" height="1" fill="#000"/></pattern>
    <filter id="glow" x="-80%" y="-80%" width="260%" height="260%"><feGaussianBlur stdDeviation="5" result="b"/><feMerge><feMergeNode in="b"/><feMergeNode in="SourceGraphic"/></feMerge></filter>
    <filter id="glowS" x="-80%" y="-80%" width="260%" height="260%"><feGaussianBlur stdDeviation="2" result="b"/><feMerge><feMergeNode in="b"/><feMergeNode in="SourceGraphic"/></feMerge></filter>
    <filter id="shadow" x="-20%" y="-20%" width="140%" height="150%"><feDropShadow dx="0" dy="6" stdDeviation="8" flood-color="#000" flood-opacity=".5"/></filter>
    <marker id="aB" markerUnits="userSpaceOnUse" markerWidth="11" markerHeight="11" viewBox="0 0 12 12" refX="10" refY="6" orient="auto"><path d="M0 1 L10 6 L0 11z" fill="#38b6ff"/></marker>
    <marker id="aV" markerUnits="userSpaceOnUse" markerWidth="11" markerHeight="11" viewBox="0 0 12 12" refX="10" refY="6" orient="auto"><path d="M0 1 L10 6 L0 11z" fill="#a78bfa"/></marker>
    <marker id="aR" markerUnits="userSpaceOnUse" markerWidth="11" markerHeight="11" viewBox="0 0 12 12" refX="10" refY="6" orient="auto"><path d="M0 1 L10 6 L0 11z" fill="#ff5c7a"/></marker>
    <marker id="aD" markerUnits="userSpaceOnUse" markerWidth="10" markerHeight="10" viewBox="0 0 12 12" refX="10" refY="6" orient="auto"><path d="M0 1 L10 6 L0 11z" fill="#4f7699"/></marker>
    <path id="ms" d="M0 0h11.4v11.4H0zm12.6 0H24v11.4H12.6zM0 12.6h11.4V24H0zm12.6 0H24V24H12.6z"/>
    <clipPath id="frame"><rect width="1200" height="500" rx="20"/></clipPath>
    <clipPath id="filmClip"><rect x="-30" y="-15" width="60" height="30" rx="5"/></clipPath>
    <clipPath id="radarClip"><circle r="29"/></clipPath>
  </defs>
  <style>
    .mono{font-family:'Cascadia Code','Cascadia Mono',Consolas,'Courier New',monospace}
    .muted{fill:#8bb4d6}.dim{fill:#4f7699}
    .band{animation:band 7s linear infinite}
    @keyframes band{0%{transform:translateY(-160px)}100%{transform:translateY(520px)}}
    .corner{animation:corner 2.4s ease-in-out infinite}
    @keyframes corner{0%,100%{opacity:.35}50%{opacity:1}}
    .blink{animation:blink 1.1s steps(1) infinite}
    @keyframes blink{0%{opacity:1}50%{opacity:.12}}
    .spin{animation:spin 4s linear infinite;transform-origin:0 0}
    .spin2{animation:spin 2.4s linear infinite;transform-origin:0 0}
    .spinr{animation:spin 9s linear infinite reverse;transform-origin:0 0}
    .spinslow{animation:spin 60s linear infinite;transform-origin:0 0}
    @keyframes spin{to{transform:rotate(360deg)}}
    .flow{stroke-dasharray:6 6;animation:flow .8s linear infinite}
    @keyframes flow{to{stroke-dashoffset:-12}}
    .under{stroke-dasharray:1;animation:under 12s linear infinite}
    @keyframes under{0%{stroke-dashoffset:1;opacity:0}4%{opacity:1}18%{stroke-dashoffset:0}94%{opacity:1;stroke-dashoffset:0}100%{opacity:0;stroke-dashoffset:0}}
    .ping{animation:ping 4s ease-out infinite;transform-box:fill-box;transform-origin:center}
    @keyframes ping{0%{transform:scale(.2);opacity:1}35%{transform:scale(2.2);opacity:0}100%{transform:scale(2.2);opacity:0}}
    .lock{animation:lock 4s ease-out infinite;transform-box:fill-box;transform-origin:center}
    @keyframes lock{0%{transform:scale(1.9);opacity:0}9%{transform:scale(1);opacity:1}70%{transform:scale(1);opacity:1}88%,100%{transform:scale(1);opacity:.28}}
    .lbl{animation:lbl 4s linear infinite}
    @keyframes lbl{0%{opacity:.3}7%{opacity:1}70%{opacity:1}88%,100%{opacity:.3}}
    .act0{animation:act0 12s linear infinite}
    @keyframes act0{0.00%{opacity:0}1.00%{opacity:0}4.00%{opacity:1}22.00%{opacity:1}25.00%{opacity:0}100.00%{opacity:0}}
    .dim0{animation:dim0 12s linear infinite}
    @keyframes dim0{0.00%{opacity:0.55}1.00%{opacity:0.55}4.00%{opacity:1}22.00%{opacity:1}25.00%{opacity:0.55}100.00%{opacity:0.55}}
    .log0{animation:log0 12s linear infinite}
    @keyframes log0{0.00%{opacity:0}3.00%{opacity:0}4.00%{opacity:1}22.00%{opacity:1}23.00%{opacity:0}100.00%{opacity:0}}
    .act1{animation:act1 12s linear infinite}
    @keyframes act1{0.00%{opacity:0}23.00%{opacity:0}26.00%{opacity:1}44.00%{opacity:1}47.00%{opacity:0}100.00%{opacity:0}}
    .dim1{animation:dim1 12s linear infinite}
    @keyframes dim1{0.00%{opacity:0.55}23.00%{opacity:0.55}26.00%{opacity:1}44.00%{opacity:1}47.00%{opacity:0.55}100.00%{opacity:0.55}}
    .log1{animation:log1 12s linear infinite}
    @keyframes log1{0.00%{opacity:0}25.00%{opacity:0}26.00%{opacity:1}44.00%{opacity:1}45.00%{opacity:0}100.00%{opacity:0}}
    .act2{animation:act2 12s linear infinite}
    @keyframes act2{0.00%{opacity:0}45.00%{opacity:0}48.00%{opacity:1}66.00%{opacity:1}69.00%{opacity:0}100.00%{opacity:0}}
    .dim2{animation:dim2 12s linear infinite}
    @keyframes dim2{0.00%{opacity:0.55}45.00%{opacity:0.55}48.00%{opacity:1}66.00%{opacity:1}69.00%{opacity:0.55}100.00%{opacity:0.55}}
    .log2{animation:log2 12s linear infinite}
    @keyframes log2{0.00%{opacity:0}47.00%{opacity:0}48.00%{opacity:1}66.00%{opacity:1}67.00%{opacity:0}100.00%{opacity:0}}
    .act3{animation:act3 12s linear infinite}
    @keyframes act3{0.00%{opacity:0}67.00%{opacity:0}70.00%{opacity:1}88.00%{opacity:1}91.00%{opacity:0}100.00%{opacity:0}}
    .dim3{animation:dim3 12s linear infinite}
    @keyframes dim3{0.00%{opacity:0.55}67.00%{opacity:0.55}70.00%{opacity:1}88.00%{opacity:1}91.00%{opacity:0.55}100.00%{opacity:0.55}}
    .log3{animation:log3 12s linear infinite}
    @keyframes log3{0.00%{opacity:0}69.00%{opacity:0}70.00%{opacity:1}88.00%{opacity:1}89.00%{opacity:0}100.00%{opacity:0}}
    .loggate{animation:loggate 12s linear infinite}
    @keyframes loggate{0.00%{opacity:0}89.00%{opacity:0}90.00%{opacity:1}99.00%{opacity:1}100.00%{opacity:0}}
.stamp{animation:stamp 12s ease-in-out infinite;transform-box:fill-box;transform-origin:center}
    @keyframes stamp{0%,88%{transform:scale(1)}92%{transform:scale(1.16)}96%,100%{transform:scale(1)}}
    .check{animation:check 12s linear infinite}
    @keyframes check{0.00%{opacity:0}89.00%{opacity:0}90.00%{opacity:1}99.00%{opacity:1}100.00%{opacity:0}}
    .ttl{stroke-dasharray:226.2;animation:ttl 12s linear infinite}
    @keyframes ttl{from{stroke-dashoffset:0}to{stroke-dashoffset:226.2}}
    .film{animation:film 1s linear infinite}
    @keyframes film{to{transform:translateX(-20px)}}
    .row0{animation:row0 3s linear infinite}
    @keyframes row0{0.00%{opacity:0}6.00%{opacity:0}10.00%{opacity:1}92.00%{opacity:1}96.00%{opacity:0}100.00%{opacity:0}}
    .row1{animation:row1 3s linear infinite}
    @keyframes row1{0.00%{opacity:0}26.00%{opacity:0}30.00%{opacity:1}92.00%{opacity:1}96.00%{opacity:0}100.00%{opacity:0}}
    .row2{animation:row2 3s linear infinite}
    @keyframes row2{0.00%{opacity:0}46.00%{opacity:0}50.00%{opacity:1}92.00%{opacity:1}96.00%{opacity:0}100.00%{opacity:0}}
    .row3{animation:row3 3s linear infinite}
    @keyframes row3{0.00%{opacity:0}66.00%{opacity:0}70.00%{opacity:1}92.00%{opacity:1}96.00%{opacity:0}100.00%{opacity:0}}
    .ping2{animation:ping2 2.4s ease-out infinite;transform-box:fill-box;transform-origin:center}
    @keyframes ping2{0%{transform:scale(.3);opacity:1}40%{transform:scale(2.4);opacity:0}100%{transform:scale(2.4);opacity:0}}
    [class]{animation-fill-mode:both}
  </style>

  <g clip-path="url(#frame)" fill="#e6f4ff">
  <rect width="1200" height="500" fill="url(#bg)"/>
  <rect width="1200" height="500" fill="url(#grid)" opacity=".5"/>
  <g class="band"><rect width="1200" height="160" fill="url(#gBand)"/><rect y="159" width="1200" height="1.5" fill="#8fd6ff" opacity=".35"/></g>

  <text x="64" y="50" font-size="13" letter-spacing="4" class="dim mono">PIPELINE · END TO END</text>
  <text x="64" y="84" font-size="25" font-weight="900">One custom function. <tspan fill="url(#gBlue)">Everything else is configuration.</tspan></text>
  <text x="1136" y="50" text-anchor="end" font-size="11" class="mono dim">Microsoft.Web · Microsoft.Storage · Microsoft.CognitiveServices</text>

  <!-- source -->
  <g transform="translate(52 180)">
    <rect width="110" height="104" rx="12" fill="#061327" stroke="#16324f" stroke-width="1.5" filter="url(#shadow)"/>
    <path d="M6 16 V6 H16 M94 6 H104 V16 M104 88 V98 H94 M16 98 H6 V88" fill="none" stroke="#38b6ff" stroke-width="1.4"/>
    <rect x="32" y="24" width="32" height="22" rx="4" fill="none" stroke="#38b6ff" stroke-width="2"/>
    <path d="M64 31 L78 24 L78 46 L64 39 Z" fill="none" stroke="#38b6ff" stroke-width="2" stroke-linejoin="round"/>
    <g class="blink"><circle cx="40" cy="32" r="2.6" fill="#ff5c7a"/></g>
    <text x="55" y="70" text-anchor="middle" font-size="12.5" font-weight="700">CCTV video</text>
    <text x="55" y="86" text-anchor="middle" font-size="9.5" class="dim mono">SharePoint upload</text>
  </g>
  <g transform="translate(196 122)">
    <rect width="188" height="222" rx="12" fill="#061327" stroke="#16324f" stroke-width="1.5" filter="url(#shadow)"/>
    <g class="act0"><rect width="188" height="222" rx="12" fill="#38b6ff" fill-opacity=".06" stroke="#38b6ff" stroke-width="1.6" filter="url(#glowS)"/></g>
    <g class="dim0"><path d="M6 20 V6 H20 M168 6 H182 V20 M182 202 V216 H168 M20 216 H6 V202" fill="none" stroke="#38b6ff" stroke-width="1.8"/></g>
    <text x="18" y="28" font-size="10" letter-spacing="2" font-weight="800" fill="#38b6ff">STAGE 01</text>
    <g class="act0"><g class="blink"><text x="170" y="28" text-anchor="end" font-size="9.5" letter-spacing="1.5" class="mono" fill="#8fd6ff">● ACTIVE</text></g></g>
    <g transform="translate(94 86)">
      <circle r="30" fill="#020915" stroke="#38b6ff" stroke-width="1.8"/>
      <g fill="none" stroke="#8fd6ff" stroke-width="2"><ellipse cx="0" cy="-9" rx="12" ry="4.5"/><path d="M-12 -9 V9 A12 4.5 0 0 0 12 9 V-9"/><path d="M-12 0 A12 4.5 0 0 0 12 0"/></g>
      <circle class="ttl" r="36" fill="none" stroke="#38b6ff" stroke-width="2.2" transform="rotate(-90)" filter="url(#glowS)"/>
    </g>
    <text x="94" y="148" text-anchor="middle" font-size="14" font-weight="700">Stage + sign</text>
    <text x="94" y="167" text-anchor="middle" font-size="10.5" class="muted">Blob Storage</text>
    <text x="94" y="183" text-anchor="middle" font-size="10" class="mono" fill="#6f9cc6">user-delegation SAS · 60 min</text>
    <rect x="16" y="194" width="156" height="18" rx="9" fill="#030a14" stroke="#16324f"/>
    <text x="94" y="207" text-anchor="middle" font-size="9" class="mono dim">Microsoft.Storage</text>
  </g>
  <g transform="translate(414 122)">
    <rect width="188" height="222" rx="12" fill="#061327" stroke="#16324f" stroke-width="1.5" filter="url(#shadow)"/>
    <g class="act1"><rect width="188" height="222" rx="12" fill="#38b6ff" fill-opacity=".06" stroke="#38b6ff" stroke-width="1.6" filter="url(#glowS)"/></g>
    <g class="dim1"><path d="M6 20 V6 H20 M168 6 H182 V20 M182 202 V216 H168 M20 216 H6 V202" fill="none" stroke="#38b6ff" stroke-width="1.8"/></g>
    <text x="18" y="28" font-size="10" letter-spacing="2" font-weight="800" fill="#38b6ff">STAGE 02</text>
    <g class="act1"><g class="blink"><text x="170" y="28" text-anchor="end" font-size="9.5" letter-spacing="1.5" class="mono" fill="#8fd6ff">● ACTIVE</text></g></g>
    <g transform="translate(94 86)">
      <circle r="30" fill="#020915" stroke="#38b6ff" stroke-width="1.8"/>
      <g clip-path="url(#radarClip)"><circle r="20" fill="none" stroke="#1d4b7a" stroke-width="1"/><circle r="10" fill="none" stroke="#1d4b7a" stroke-width="1"/><g class="spin2"><path d="M0 0 L14.5 -25.1 A29 29 0 0 1 17.7 -23 Z" fill="#38b6ff" fill-opacity="0.025"/><path d="M0 0 L17.7 -23 A29 29 0 0 1 20.5 -20.5 Z" fill="#38b6ff" fill-opacity="0.039"/><path d="M0 0 L20.5 -20.5 A29 29 0 0 1 23 -17.7 Z" fill="#38b6ff" fill-opacity="0.062"/><path d="M0 0 L23 -17.7 A29 29 0 0 1 25.1 -14.5 Z" fill="#38b6ff" fill-opacity="0.095"/><path d="M0 0 L25.1 -14.5 A29 29 0 0 1 26.8 -11.1 Z" fill="#38b6ff" fill-opacity="0.137"/><path d="M0 0 L26.8 -11.1 A29 29 0 0 1 28 -7.5 Z" fill="#38b6ff" fill-opacity="0.189"/><path d="M0 0 L28 -7.5 A29 29 0 0 1 28.8 -3.8 Z" fill="#38b6ff" fill-opacity="0.250"/><path d="M0 0 L28.8 -3.8 A29 29 0 0 1 29 0 Z" fill="#38b6ff" fill-opacity="0.320"/><rect x="0" y="-1" width="29" height="2" fill="#8fd6ff" filter="url(#glowS)"/></g></g>
      <circle cx="12" cy="-14" r="2.6" fill="#ff5c7a"/>
      <circle class="ping2" style="animation-delay:2.07s" cx="12" cy="-14" r="5" fill="none" stroke="#ff5c7a" stroke-width="1.5"/>
    </g>
    <text x="94" y="148" text-anchor="middle" font-size="14" font-weight="700">Analyze</text>
    <text x="94" y="167" text-anchor="middle" font-size="10.5" class="muted">clv.sewer.cctv.v1</text>
    <text x="94" y="183" text-anchor="middle" font-size="10" class="mono" fill="#6f9cc6">api-version 2025-11-01</text>
    <rect x="16" y="194" width="156" height="18" rx="9" fill="#030a14" stroke="#16324f"/>
    <text x="94" y="207" text-anchor="middle" font-size="9" class="mono dim">Microsoft.CognitiveServices</text>
  </g>
  <g transform="translate(632 122)">
    <rect width="188" height="222" rx="12" fill="#061327" stroke="#16324f" stroke-width="1.5" filter="url(#shadow)"/>
    <g class="act2"><rect width="188" height="222" rx="12" fill="#38b6ff" fill-opacity=".06" stroke="#38b6ff" stroke-width="1.6" filter="url(#glowS)"/></g>
    <g class="dim2"><path d="M6 20 V6 H20 M168 6 H182 V20 M182 202 V216 H168 M20 216 H6 V202" fill="none" stroke="#38b6ff" stroke-width="1.8"/></g>
    <text x="18" y="28" font-size="10" letter-spacing="2" font-weight="800" fill="#38b6ff">STAGE 03</text>
    <g class="act2"><g class="blink"><text x="170" y="28" text-anchor="end" font-size="9.5" letter-spacing="1.5" class="mono" fill="#8fd6ff">● ACTIVE</text></g></g>
    <g transform="translate(94 86)">
      <circle r="30" fill="#020915" stroke="#38b6ff" stroke-width="1.8"/>
      <g clip-path="url(#filmClip)"><g class="film"><rect x="-58" y="-11" width="16" height="22" rx="2" fill="#04142a" stroke="#38b6ff" stroke-width="1.3"/><circle cx="-54" cy="-8" r="1" fill="#38b6ff"/><circle cx="-46" cy="8" r="1" fill="#38b6ff"/><rect x="-38" y="-11" width="16" height="22" rx="2" fill="#04142a" stroke="#38b6ff" stroke-width="1.3"/><circle cx="-34" cy="-8" r="1" fill="#38b6ff"/><circle cx="-26" cy="8" r="1" fill="#38b6ff"/><rect x="-18" y="-11" width="16" height="22" rx="2" fill="#04142a" stroke="#38b6ff" stroke-width="1.3"/><circle cx="-14" cy="-8" r="1" fill="#38b6ff"/><circle cx="-6" cy="8" r="1" fill="#38b6ff"/><rect x="2" y="-11" width="16" height="22" rx="2" fill="#04142a" stroke="#38b6ff" stroke-width="1.3"/><circle cx="6" cy="-8" r="1" fill="#38b6ff"/><circle cx="14" cy="8" r="1" fill="#38b6ff"/><rect x="22" y="-11" width="16" height="22" rx="2" fill="#04142a" stroke="#38b6ff" stroke-width="1.3"/><circle cx="26" cy="-8" r="1" fill="#38b6ff"/><circle cx="34" cy="8" r="1" fill="#38b6ff"/><rect x="42" y="-11" width="16" height="22" rx="2" fill="#04142a" stroke="#38b6ff" stroke-width="1.3"/><circle cx="46" cy="-8" r="1" fill="#38b6ff"/><circle cx="54" cy="8" r="1" fill="#38b6ff"/><rect x="62" y="-11" width="16" height="22" rx="2" fill="#04142a" stroke="#38b6ff" stroke-width="1.3"/><circle cx="66" cy="-8" r="1" fill="#38b6ff"/><circle cx="74" cy="8" r="1" fill="#38b6ff"/></g></g>
      <g class="blink"><path d="M-11 -8 V-14 H-5 M5 -14 H11 V-8 M11 8 V14 H5 M-5 14 H-11 V8" fill="none" stroke="#ff5c7a" stroke-width="1.8"/></g>
    </g>
    <text x="94" y="148" text-anchor="middle" font-size="14" font-weight="700">Normalize</text>
    <text x="94" y="167" text-anchor="middle" font-size="10.5" class="muted">findings + keyframe thumbs</text>
    <text x="94" y="183" text-anchor="middle" font-size="10" class="mono" fill="#6f9cc6">enrichment never fails a run</text>
    <rect x="16" y="194" width="156" height="18" rx="9" fill="#030a14" stroke="#16324f"/>
    <text x="94" y="207" text-anchor="middle" font-size="9" class="mono dim">Azure Functions · Python</text>
  </g>
  <g transform="translate(850 122)">
    <rect width="188" height="222" rx="12" fill="#061327" stroke="#16324f" stroke-width="1.5" filter="url(#shadow)"/>
    <g class="act3"><rect width="188" height="222" rx="12" fill="#38b6ff" fill-opacity=".06" stroke="#38b6ff" stroke-width="1.6" filter="url(#glowS)"/></g>
    <g class="dim3"><path d="M6 20 V6 H20 M168 6 H182 V20 M182 202 V216 H168 M20 216 H6 V202" fill="none" stroke="#38b6ff" stroke-width="1.8"/></g>
    <text x="18" y="28" font-size="10" letter-spacing="2" font-weight="800" fill="#38b6ff">STAGE 04</text>
    <g class="act3"><g class="blink"><text x="170" y="28" text-anchor="end" font-size="9.5" letter-spacing="1.5" class="mono" fill="#8fd6ff">● ACTIVE</text></g></g>
    <g transform="translate(94 86)">
      <circle r="30" fill="#020915" stroke="#38b6ff" stroke-width="1.8"/>
      <rect x="-20" y="-17" width="40" height="34" rx="3" fill="none" stroke="#38b6ff" stroke-width="1.5"/>
      <g class="row0"><rect x="-15" y="-12.0" width="30" height="4.5" rx="1.5" fill="#8fd6ff" fill-opacity="0.90"/></g>
      <g class="row1"><rect x="-15" y="-4.5" width="30" height="4.5" rx="1.5" fill="#8fd6ff" fill-opacity="0.75"/></g>
      <g class="row2"><rect x="-15" y="3.0" width="30" height="4.5" rx="1.5" fill="#8fd6ff" fill-opacity="0.60"/></g>
      <g class="row3"><rect x="-15" y="10.5" width="30" height="4.5" rx="1.5" fill="#8fd6ff" fill-opacity="0.45"/></g>
    </g>
    <text x="94" y="148" text-anchor="middle" font-size="14" font-weight="700">Record</text>
    <text x="94" y="167" text-anchor="middle" font-size="10.5" class="muted">SharePoint lists</text>
    <text x="94" y="183" text-anchor="middle" font-size="10" class="mono" fill="#6f9cc6">one row per observation</text>
    <rect x="16" y="194" width="156" height="18" rx="9" fill="#030a14" stroke="#16324f"/>
    <text x="94" y="207" text-anchor="middle" font-size="9" class="mono dim">SharePoint Online</text>
  </g>

  <!-- connectors -->
  <g stroke="#38b6ff" stroke-width="2.4" fill="none" marker-end="url(#aB)">
    <path class="flow" d="M162 233 L192 233"/><path class="flow" d="M384 233 L410 233"/><path class="flow" d="M602 233 L628 233"/><path class="flow" d="M820 233 L846 233"/>
  </g>
  <path class="flow" d="M1038 233 L1068 233" stroke="#a78bfa" stroke-width="2.4" fill="none" marker-end="url(#aV)"/>

  <!-- inspector gate -->
  <g transform="translate(1110 233)">
    <g class="spinr"><circle r="42" fill="none" stroke="#a78bfa" stroke-width="1.5" stroke-dasharray="4 6" opacity=".8"/></g>
    <g class="stamp">
      <circle r="32" fill="url(#gViolet)" filter="url(#glow)"/>
      <circle r="25" fill="none" stroke="#ffffff" stroke-width="1.4" stroke-dasharray="3 3" opacity=".8"/>
      <circle cy="-6" r="6.5" fill="#150a33"/><path d="M-9.5 -9 A9.5 8.5 0 0 1 9.5 -9 Z" fill="#150a33"/><rect x="-12" y="-10" width="24" height="2.6" rx="1.3" fill="#150a33"/>
      <path d="M-12 14 a12 12 0 0 1 24 0 z" fill="#150a33"/>
    </g>
    <g class="check"><circle cx="22" cy="-22" r="10" fill="#38b6ff" filter="url(#glowS)"/><path d="M17 -22 L21 -18 L27 -26" stroke="#02060d" stroke-width="2.4" fill="none" stroke-linecap="round" stroke-linejoin="round"/></g>
    <text y="60" text-anchor="middle" font-size="11" font-weight="800" letter-spacing="1.5" fill="#d9ccff">INSPECTOR</text>
    <text y="75" text-anchor="middle" font-size="9.5" class="dim">verifies every finding</text>
  </g>

  <!-- travelling keyframe packet -->
  <g>
    <animateMotion dur="12s" repeatCount="indefinite" calcMode="linear"
      keyPoints="0;0;0.1825;0.1825;0.3998;0.3998;0.6171;0.6171;0.8345;0.8345;1;1"
      keyTimes="0;0.02;0.04;0.22;0.26;0.44;0.48;0.66;0.70;0.88;0.90;1"
      path="M107,106 L290,106 L508,106 L726,106 L944,106 L1110,106"/>
    <rect x="-44" y="-1.5" width="30" height="3" rx="1.5" fill="#38b6ff" opacity=".45"/>
    <rect x="-14" y="-11" width="28" height="22" rx="4" fill="#030a14" stroke="#8fd6ff" stroke-width="1.6" filter="url(#glowS)"/>
    <path d="M-4 -5 L6 0 L-4 5 Z" fill="#8fd6ff"/>
  </g>

  <!-- event log -->
  <rect x="196" y="364" width="842" height="62" rx="10" fill="#030a14" stroke="#16324f"/>
  <g class="blink"><circle cx="212" cy="379" r="3" fill="#38b6ff"/></g>
  <text x="222" y="383" font-size="9.5" letter-spacing="2" class="mono dim">FLOW RUN · EVENT LOG</text>
  <g class="log0"><text x="212" y="410" font-size="12.5" class="mono"><tspan fill="#4f7699">[00:00:02]</tspan> <tspan fill="#cfeeff">blob staged → user-delegation SAS issued (read-only, 60 min)</tspan></text></g>
  <g class="log1"><text x="212" y="410" font-size="12.5" class="mono"><tspan fill="#4f7699">[00:00:03]</tspan> <tspan fill="#cfeeff">POST analyzers/clv.sewer.cctv.v1:analyze → 202 · Operation-Location</tspan></text></g>
  <g class="log2"><text x="212" y="410" font-size="12.5" class="mono"><tspan fill="#4f7699">[00:02:07]</tspan> <tspan fill="#cfeeff">status Succeeded → 3 findings normalized · 3 keyframe thumbnails</tspan></text></g>
  <g class="log3"><text x="212" y="410" font-size="12.5" class="mono"><tspan fill="#4f7699">[00:02:08]</tspan> <tspan fill="#cfeeff">SharePoint → 1 inspection row · 3 finding rows</tspan></text></g>
  <g class="loggate"><text x="212" y="410" font-size="12.5" class="mono"><tspan fill="#4f7699">[00:02:08]</tspan> <tspan fill="#d9ccff">▶ ready for review · inspector notified</tspan></text></g>
  <text x="600" y="466" text-anchor="middle" font-size="14.5" class="muted">The flow owns the order. The analyzer only watches. A person makes the call.</text>

  <rect width="1200" height="500" fill="url(#scan)" opacity=".22"/>
  <g class="corner"><path d="M14 36 V14 H36 M1164 14 H1186 V36 M1186 464 V486 H1164 M36 486 H14 V464" fill="none" stroke="#38b6ff" stroke-width="2"/></g>
  </g>
  <rect x="1" y="1" width="1198" height="498" rx="19" fill="none" stroke="#16324f" stroke-width="2"/>
</svg>
