<svg xmlns="http://www.w3.org/2000/svg" width="1200" height="560" viewBox="0 0 1200 560" font-family="'Segoe UI Variable Display','Segoe UI',system-ui,sans-serif">
  <defs>
    <linearGradient id="sky" x1="0" y1="0" x2="0" y2="1"><stop offset="0" stop-color="#0c0f1e"/><stop offset=".42" stop-color="#1a1730"/><stop offset=".72" stop-color="#3a2948"/><stop offset=".92" stop-color="#7a3f4d"/></linearGradient>
    <radialGradient id="sun" cx=".5" cy="1.02" r=".6"><stop offset="0" stop-color="#ffd9a0" stop-opacity=".8"/><stop offset="1" stop-color="#c96a4a" stop-opacity="0"/></radialGradient>
    <linearGradient id="post" x1="0" y1="0" x2="1" y2="0"><stop offset="0" stop-color="#221f29"/><stop offset=".45" stop-color="#8f8b98"/><stop offset="1" stop-color="#1a171f"/></linearGradient>
    <linearGradient id="orange" x1="0" y1="0" x2=".4" y2="1"><stop offset="0" stop-color="#ffa055"/><stop offset=".5" stop-color="#f26a1b"/><stop offset="1" stop-color="#b9480a"/></linearGradient>
    <linearGradient id="coneG" x1="0" y1="0" x2="1" y2="0"><stop offset="0" stop-color="#b9480a"/><stop offset=".4" stop-color="#ff8a3d"/><stop offset="1" stop-color="#a63f08"/></linearGradient>
    <linearGradient id="collar" x1="0" y1="0" x2="1" y2="0"><stop offset="0" stop-color="#b8b8c0"/><stop offset=".45" stop-color="#ffffff"/><stop offset="1" stop-color="#9a9aa2"/></linearGradient>
    <linearGradient id="housing" x1="0" y1="0" x2="0" y2="1"><stop offset="0" stop-color="#3a3740"/><stop offset="1" stop-color="#141318"/></linearGradient>
    <pattern id="stripes" width="64" height="32" patternUnits="userSpaceOnUse" patternTransform="skewX(-22)"><rect width="64" height="32" fill="#f4f1f6"/><rect width="32" height="32" fill="#f26a1b"/></pattern>
    <linearGradient id="sheenG" x1="0" y1="0" x2="1" y2="0"><stop offset="0" stop-color="#fff" stop-opacity="0"/><stop offset=".5" stop-color="#fff" stop-opacity=".38"/><stop offset="1" stop-color="#fff" stop-opacity="0"/></linearGradient>
    <radialGradient id="beacon"><stop offset="0" stop-color="#fff8d6"/><stop offset=".22" stop-color="#ffb300" stop-opacity=".95"/><stop offset="1" stop-color="#ff7b00" stop-opacity="0"/></radialGradient>
    <radialGradient id="lamp"><stop offset="0" stop-color="#fff4cf"/><stop offset=".45" stop-color="#ffb300"/><stop offset="1" stop-color="#ff8a00" stop-opacity="0"/></radialGradient>
    <filter id="shadow" x="-20%" y="-20%" width="140%" height="150%"><feDropShadow dx="0" dy="8" stdDeviation="8" flood-color="#07050c" flood-opacity=".6"/></filter>
    <filter id="glow" x="-60%" y="-60%" width="220%" height="220%"><feGaussianBlur stdDeviation="3" result="b"/><feMerge><feMergeNode in="b"/><feMergeNode in="b"/><feMergeNode in="SourceGraphic"/></feMerge></filter>
    <filter id="soft" x="-30%" y="-30%" width="160%" height="160%"><feGaussianBlur stdDeviation="10"/></filter>
    <filter id="grain" x="0" y="0" width="100%" height="100%"><feTurbulence type="fractalNoise" baseFrequency=".75" numOctaves="2" seed="3"/><feColorMatrix values="0 0 0 0 1  0 0 0 0 1  0 0 0 0 1  0 0 0 .07 0"/><feComposite in2="SourceGraphic" operator="in"/></filter>
    <clipPath id="frame"><rect width="1200" height="560" rx="20"/></clipPath>
    <g id="cone"><path d="M-7 -56 H7 L22 0 H-22 Z" fill="url(#coneG)"/><path d="M-10.8 -42 H10.8 L14 -29 H-14 Z" fill="url(#collar)"/><rect x="-28" y="0" width="56" height="8" rx="2" fill="#8a3606"/></g>
    <clipPath id="cStop"><rect x="-72" y="-72" width="144" height="144" rx="11" transform="rotate(45)"/></clipPath>
  </defs>
  <style>
    .stop{animation:stopA 8s steps(1) infinite}
    @keyframes stopA{0%{opacity:1}50%,100%{opacity:0}}
    .slow{animation:slowA 8s steps(1) infinite}
    @keyframes slowA{0%{opacity:0}50%,100%{opacity:1}}
    .flip{animation:flip 8s ease-in-out infinite;transform-box:fill-box;transform-origin:center}
    @keyframes flip{0%,44%{transform:scaleX(1)}50%{transform:scaleX(.02)}56%,94%{transform:scaleX(1)}100%{transform:scaleX(.02)}}
    .beacon{animation:beacon 1.2s ease-in-out infinite}
    @keyframes beacon{0%,100%{opacity:1}50%{opacity:.05}}
    .seq{opacity:.1;animation:seq 1.8s steps(1) infinite}
    @keyframes seq{0%{opacity:1}62%,100%{opacity:.1}}
    .sheen{animation:sheen 6s cubic-bezier(.45,0,.2,1) infinite}
    @keyframes sheen{0%{transform:translateX(0)}30%,100%{transform:translateX(520px)}}
    .head{stroke-dasharray:90 1110;animation:head 2.8s linear infinite}
    @keyframes head{from{stroke-dashoffset:-1110}to{stroke-dashoffset:90}}
    .tail{stroke-dasharray:70 1130;animation:tail 3.6s linear infinite}
    @keyframes tail{from{stroke-dashoffset:70}to{stroke-dashoffset:-1130}}
    .drift{animation:drift 6s ease-in-out infinite}
    @keyframes drift{0%,100%{transform:rotate(-.6deg)}50%{transform:rotate(.6deg)}}
  </style>
  <g clip-path="url(#frame)">
    <rect width="1200" height="560" fill="url(#sky)"/>
    <rect width="1200" height="560" fill="url(#sun)"/>
    <circle cx="600" cy="540" r="50" fill="#fff2cf" opacity=".8" filter="url(#soft)"/>
    <path d="M0 440 C 240 426, 480 436, 720 430 S 1050 424, 1200 432 V560 H0 Z" fill="#0f0d15"/>
    <path d="M0 470 H1200" stroke="#ffc72c" stroke-width="2" stroke-dasharray="40 26" opacity=".5"/>
    <g fill="none" stroke-linecap="round" filter="url(#glow)">
      <path class="head" d="M0 458 H1200" stroke="#fff8d6" stroke-width="4"/>
      <path class="head" style="animation-delay:-1.4s" d="M0 458 H1200" stroke="#fff8d6" stroke-width="3"/>
      <path class="tail" d="M0 486 H1200" stroke="#ff5252" stroke-width="4"/>
      <path class="tail" style="animation-delay:-2s" d="M0 486 H1200" stroke="#ff5252" stroke-width="3"/>
    </g>

    <text x="50" y="48" font-size="12.5" letter-spacing="3.4" fill="#ff9a55">WORK ZONE</text>
    <text x="50" y="82" font-size="28" font-weight="600" fill="#fff">Agents build. People hold the paddle.</text>

    <!-- agent work ahead -->
    <g class="drift" style="transform-origin:190px 420px">
      <rect x="186" y="330" width="8" height="110" fill="url(#post)"/>
      <g transform="translate(190 240)">
        <rect x="-72" y="-72" width="144" height="144" rx="11" fill="url(#orange)" transform="rotate(45)" filter="url(#shadow)"/>
        <rect x="-65" y="-65" width="130" height="130" rx="8" fill="none" stroke="#111" stroke-width="3" transform="rotate(45)"/>
        <g clip-path="url(#cStop)"><g class="sheen"><rect x="-260" y="-110" width="70" height="220" fill="url(#sheenG)" transform="skewX(-22)"/></g></g>
        <g text-anchor="middle" font-size="24" font-weight="700" fill="#111"><text y="-14">AGENT</text><text y="14">WORK</text><text y="42">AHEAD</text></g>
      </g>
      <g class="beacon"><circle cx="190" cy="124" r="24" fill="url(#beacon)"/></g>
      <rect x="88" y="360" width="204" height="34" rx="5" fill="url(#orange)" stroke="#111" stroke-width="2.2"/>
      <text x="190" y="382" text-anchor="middle" font-size="12.5" font-weight="700" fill="#111">GitHub Copilot · agent mode</text>
    </g>

    <!-- arrow board trailer -->
    <rect x="452" y="356" width="10" height="72" fill="url(#post)"/>
    <path d="M370 428 H546 L556 442 H360 Z" fill="#2a2730"/>
    <circle cx="398" cy="444" r="12" fill="#111"/><circle cx="398" cy="444" r="5" fill="#5b5664"/>
    <circle cx="512" cy="444" r="12" fill="#111"/><circle cx="512" cy="444" r="5" fill="#5b5664"/>
    <g filter="url(#shadow)"><rect x="320" y="222" width="276" height="140" rx="8" fill="url(#housing)"/></g>
    <rect x="330" y="232" width="256" height="120" rx="4" fill="#0c0b0e"/>
    <g fill="#2a2621">
      <circle cx="360" cy="292" r="7"/><circle cx="388" cy="292" r="7"/><circle cx="416" cy="292" r="7"/><circle cx="444" cy="292" r="7"/><circle cx="472" cy="292" r="7"/><circle cx="500" cy="292" r="7"/><circle cx="528" cy="292" r="7"/>
      <circle cx="518" cy="252" r="7"/><circle cx="536" cy="266" r="7"/><circle cx="554" cy="280" r="7"/><circle cx="560" cy="292" r="7"/><circle cx="554" cy="304" r="7"/><circle cx="536" cy="318" r="7"/><circle cx="518" cy="332" r="7"/>
    </g>
    <g fill="url(#lamp)" filter="url(#glow)">
      <circle class="seq" style="animation-delay:0s" cx="360" cy="292" r="8"/>
      <circle class="seq" style="animation-delay:.1s" cx="388" cy="292" r="8"/>
      <circle class="seq" style="animation-delay:.2s" cx="416" cy="292" r="8"/>
      <circle class="seq" style="animation-delay:.3s" cx="444" cy="292" r="8"/>
      <circle class="seq" style="animation-delay:.4s" cx="472" cy="292" r="8"/>
      <circle class="seq" style="animation-delay:.5s" cx="500" cy="292" r="8"/>
      <circle class="seq" style="animation-delay:.6s" cx="528" cy="292" r="8"/>
      <circle class="seq" style="animation-delay:.6s" cx="518" cy="252" r="8"/>
      <circle class="seq" style="animation-delay:.65s" cx="536" cy="266" r="8"/>
      <circle class="seq" style="animation-delay:.7s" cx="554" cy="280" r="8"/>
      <circle class="seq" style="animation-delay:.75s" cx="560" cy="292" r="8"/>
      <circle class="seq" style="animation-delay:.7s" cx="554" cy="304" r="8"/>
      <circle class="seq" style="animation-delay:.65s" cx="536" cy="318" r="8"/>
      <circle class="seq" style="animation-delay:.6s" cx="518" cy="332" r="8"/>
    </g>
    <text x="458" y="212" text-anchor="middle" font-size="12" letter-spacing="2.6" fill="#d9cfe6">EVERY CHANGE, ONE LANE</text>

    <!-- paddle -->
    <rect x="668" y="210" width="6" height="230" fill="url(#post)"/>
    <ellipse cx="671" cy="442" rx="22" ry="6" fill="#0c0b0e"/>
    <g class="flip">
      <g class="stop" filter="url(#shadow)">
        <path d="M652.4 128.5 L689.6 128.5 L716 154.9 L716 192.1 L689.6 218.5 L652.4 218.5 L626 192.1 L626 154.9 Z" fill="#c8102e"/>
        <path d="M654.6 133.8 L687.4 133.8 L710.7 157.1 L710.7 189.9 L687.4 213.2 L654.6 213.2 L631.3 189.9 L631.3 157.1 Z" fill="none" stroke="#fff" stroke-width="3"/>
        <text x="671" y="181" text-anchor="middle" font-size="22" font-weight="800" fill="#fff">STOP</text>
      </g>
      <g class="slow" filter="url(#shadow)">
        <rect x="-33" y="-33" width="66" height="66" rx="6" fill="url(#orange)" transform="translate(671 173.5) rotate(45)"/>
        <rect x="-27" y="-27" width="54" height="54" rx="4" fill="none" stroke="#111" stroke-width="2.6" transform="translate(671 173.5) rotate(45)"/>
        <text x="671" y="181" text-anchor="middle" font-size="19" font-weight="800" fill="#111">SLOW</text>
      </g>
    </g>

    <!-- caption -->
    <g filter="url(#shadow)"><rect x="760" y="114" width="392" height="108" rx="12" fill="url(#housing)"/></g>
    <g class="stop">
      <rect x="760" y="114" width="6" height="108" rx="3" fill="#ff4a5a"/>
      <text x="784" y="144" font-size="12.5" letter-spacing="3" fill="#ff6b78">STOP · A PERSON DECIDES</text>
      <text x="784" y="174" font-size="17" font-weight="400" fill="#f4eefa">Every deploy, data change and</text>
      <text x="784" y="198" font-size="17" font-weight="400" fill="#f4eefa">production setting needs a go-ahead.</text>
    </g>
    <g class="slow">
      <rect x="760" y="114" width="6" height="108" rx="3" fill="#ff9a55"/>
      <text x="784" y="144" font-size="12.5" letter-spacing="3" fill="#ff9a55">SLOW · PROVE IT FIRST</text>
      <text x="784" y="174" font-size="17" font-weight="400" fill="#f4eefa">Every change runs the full test suite.</text>
      <text x="784" y="198" font-size="17" font-weight="400" fill="#f4eefa">The tests say when it’s done.</text>
    </g>

    <!-- test gate barricade -->
    <rect x="806" y="262" width="300" height="34" rx="5" fill="#f4f1f6" stroke="#f26a1b" stroke-width="2.5"/>
    <text x="956" y="285" text-anchor="middle" font-size="15" font-weight="700" fill="#1f1a26">TEST GATE · 127 API + 77 APP</text>
    <rect x="828" y="296" width="12" height="148" fill="url(#post)"/><rect x="1072" y="296" width="12" height="148" fill="url(#post)"/>
    <g filter="url(#shadow)">
      <rect x="776" y="310" width="360" height="26" rx="3" fill="url(#stripes)"/>
      <rect x="776" y="350" width="360" height="26" rx="3" fill="url(#stripes)"/>
      <rect x="776" y="390" width="360" height="26" rx="3" fill="url(#stripes)"/>
    </g>
    <g class="beacon"><circle cx="784" cy="300" r="20" fill="url(#beacon)"/></g>
    <g class="beacon" style="animation-delay:-.6s"><circle cx="1128" cy="300" r="20" fill="url(#beacon)"/></g>

    <use href="#cone" x="300" y="448"/><use href="#cone" x="620" y="448"/><use href="#cone" x="740" y="448"/><use href="#cone" x="1170" y="448"/>
  </g>
  <rect x=".75" y=".75" width="1198.5" height="558.5" rx="19.5" fill="none" stroke="#241f30" stroke-width="1.5"/>
</svg>
